<?xml version="1.0" encoding="UTF-8" standalone="no"?>
<!-- Created with Inkscape (http://www.inkscape.org/) -->

<svg
   xmlns:dc="http://purl.org/dc/elements/1.1/"
   xmlns:cc="http://creativecommons.org/ns#"
   xmlns:rdf="http://www.w3.org/1999/02/22-rdf-syntax-ns#"
   xmlns:svg="http://www.w3.org/2000/svg"
   xmlns="http://www.w3.org/2000/svg"
   xmlns:sodipodi="http://sodipodi.sourceforge.net/DTD/sodipodi-0.dtd"
   xmlns:inkscape="http://www.inkscape.org/namespaces/inkscape"
   width="20px"
   height="20px"
   viewBox="0 0 20 20"
   version="1.1"
   id="SVGRoot"
   inkscape:version="0.92.4 (5da689c313, 2019-01-14)"
   sodipodi:docname="blender280AA11.svg"
   inkscape:export-filename="E:\download\blenders\blender280icons\blender280AA11.png"
   inkscape:export-xdpi="96"
   inkscape:export-ydpi="96">
  <defs
     id="defs39" />
  <sodipodi:namedview
     id="base"
     pagecolor="#ffffff"
     bordercolor="#666666"
     borderopacity="1.0"
     inkscape:pageopacity="0.0"
     inkscape:pageshadow="2"
     inkscape:zoom="12.8"
     inkscape:cx="-1.1550555"
     inkscape:cy="11.490764"
     inkscape:document-units="px"
     inkscape:current-layer="layer1"
     showgrid="false"
     inkscape:window-width="926"
     inkscape:window-height="541"
     inkscape:window-x="320"
     inkscape:window-y="326"
     inkscape:window-maximized="0" />
  <metadata
     id="metadata42">
    <rdf:RDF>
      <cc:Work
         rdf:about="">
        <dc:format>image/svg+xml</dc:format>
        <dc:type
           rdf:resource="http://purl.org/dc/dcmitype/StillImage" />
        <dc:title />
      </cc:Work>
    </rdf:RDF>
  </metadata>
  <g
     inkscape:label="Layer 1"
     inkscape:groupmode="layer"
     id="layer1">
    <g
       transform="rotate(90,414,-49.999998)"
       id="g12586"
       style="display:inline;opacity:1;fill:#ffffff;enable-background:new"
       inkscape:export-filename="C:\Users\Andrzej Ambroż\Desktop\mtrx.png"
       inkscape:export-xdpi="96"
       inkscape:export-ydpi="96">
      <path
         style="color:#000000;font-style:normal;font-variant:normal;font-weight:normal;font-stretch:normal;font-size:medium;line-height:normal;font-family:sans-serif;font-variant-ligatures:normal;font-variant-position:normal;font-variant-caps:normal;font-variant-numeric:normal;font-variant-alternates:normal;font-feature-settings:normal;text-indent:0;text-align:start;text-decoration:none;text-decoration-line:none;text-decoration-style:solid;text-decoration-color:#000000;letter-spacing:normal;word-spacing:normal;text-transform:none;writing-mode:lr-tb;direction:ltr;text-orientation:mixed;dominant-baseline:auto;baseline-shift:baseline;text-anchor:start;white-space:normal;shape-padding:0;clip-rule:nonzero;display:inline;overflow:visible;visibility:visible;opacity:1;isolation:auto;mix-blend-mode:normal;color-interpolation:sRGB;color-interpolation-filters:linearRGB;solid-color:#000000;solid-opacity:1;vector-effect:none;fill:#ffffff;fill-opacity:1;fill-rule:evenodd;stroke:none;stroke-width:1;stroke-linecap:round;stroke-linejoin:round;stroke-miterlimit:4;stroke-dasharray:none;stroke-dashoffset:0;stroke-opacity:1;marker:none;color-rendering:auto;image-rendering:auto;shape-rendering:auto;text-rendering:auto;enable-background:accumulate"
         d="m 469.5,356 c -1.37478,0 -2.5,1.12522 -2.5,2.5 0,1.37478 1.12522,2.5 2.5,2.5 1.37478,0 2.5,-1.12522 2.5,-2.5 0,-1.37478 -1.12522,-2.5 -2.5,-2.5 z"
         id="path12572"
         inkscape:connector-curvature="0"
         sodipodi:nodetypes="sssss" />
      <g
         id="g23031"
         style="opacity:0.7;fill:#ffffff">
        <path
           style="color:#000000;font-style:normal;font-variant:normal;font-weight:normal;font-stretch:normal;font-size:medium;line-height:normal;font-family:sans-serif;font-variant-ligatures:normal;font-variant-position:normal;font-variant-caps:normal;font-variant-numeric:normal;font-variant-alternates:normal;font-feature-settings:normal;text-indent:0;text-align:start;text-decoration:none;text-decoration-line:none;text-decoration-style:solid;text-decoration-color:#000000;letter-spacing:normal;word-spacing:normal;text-transform:none;writing-mode:lr-tb;direction:ltr;text-orientation:mixed;dominant-baseline:auto;baseline-shift:baseline;text-anchor:start;white-space:normal;shape-padding:0;clip-rule:nonzero;display:inline;overflow:visible;visibility:visible;opacity:1;isolation:auto;mix-blend-mode:normal;color-interpolation:sRGB;color-interpolation-filters:linearRGB;solid-color:#000000;solid-opacity:1;vector-effect:none;fill:#ffffff;fill-opacity:1;fill-rule:evenodd;stroke:none;stroke-width:1;stroke-linecap:round;stroke-linejoin:round;stroke-miterlimit:4;stroke-dasharray:none;stroke-dashoffset:0;stroke-opacity:1;marker:none;color-rendering:auto;image-rendering:auto;shape-rendering:auto;text-rendering:auto;enable-background:accumulate"
           d="m 218.5,557 c -0.8225,0 -1.5,0.6775 -1.5,1.5 0,0.64684 0.42097,1.19777 1,1.40625 V 564.5 c -0.01,0.67616 1.01,0.67616 1,0 v -4.59375 c 0.57903,-0.20848 1,-0.75941 1,-1.40625 0,-0.8225 -0.6775,-1.5 -1.5,-1.5 z m 9.5,0 c -1.09865,0 -2,0.90135 -2,2 0,0.36859 0.10883,0.71022 0.28516,1.00781 l -5.13868,5.13867 c -0.49023,0.47127 0.23577,1.19727 0.70704,0.70704 l 5.13867,-5.13868 C 227.28978,560.89117 227.63141,561 228,561 c 1.09865,-10e-6 2,-0.90135 2,-2 0,-1.09865 -0.90135,-1.99999 -2,-2 z m 0.5,10 c -0.64684,0 -1.19777,0.42097 -1.40625,1 H 222.5 c -0.67616,-0.01 -0.67616,1.01 0,1 h 4.59375 c 0.20848,0.57903 0.75941,1 1.40625,1 0.82251,0 1.5,-0.67749 1.5,-1.5 0,-0.82251 -0.67749,-1.5 -1.5,-1.5 z"
           transform="matrix(0,-1,-1,0,1038,577)"
           id="path12578"
           inkscape:connector-curvature="0" />
      </g>
    </g>
  </g>
</svg>
