<?xml version="1.0" encoding="UTF-8" standalone="no"?>
<!-- Created with Inkscape (http://www.inkscape.org/) -->

<svg
   xmlns:dc="http://purl.org/dc/elements/1.1/"
   xmlns:cc="http://creativecommons.org/ns#"
   xmlns:rdf="http://www.w3.org/1999/02/22-rdf-syntax-ns#"
   xmlns:svg="http://www.w3.org/2000/svg"
   xmlns="http://www.w3.org/2000/svg"
   xmlns:sodipodi="http://sodipodi.sourceforge.net/DTD/sodipodi-0.dtd"
   xmlns:inkscape="http://www.inkscape.org/namespaces/inkscape"
   width="20px"
   height="20px"
   viewBox="0 0 20 20"
   version="1.1"
   id="SVGRoot"
   inkscape:version="0.92.4 (5da689c313, 2019-01-14)"
   sodipodi:docname="blender280AA10.svg"
   inkscape:export-filename="E:\download\blenders\blender280icons\blender280AA10.png"
   inkscape:export-xdpi="96"
   inkscape:export-ydpi="96">
  <defs
     id="defs39" />
  <sodipodi:namedview
     id="base"
     pagecolor="#ffffff"
     bordercolor="#666666"
     borderopacity="1.0"
     inkscape:pageopacity="0.0"
     inkscape:pageshadow="2"
     inkscape:zoom="12.8"
     inkscape:cx="-1.1550555"
     inkscape:cy="11.490764"
     inkscape:document-units="px"
     inkscape:current-layer="layer1"
     showgrid="false"
     inkscape:window-width="926"
     inkscape:window-height="541"
     inkscape:window-x="440"
     inkscape:window-y="138"
     inkscape:window-maximized="0" />
  <metadata
     id="metadata42">
    <rdf:RDF>
      <cc:Work
         rdf:about="">
        <dc:format>image/svg+xml</dc:format>
        <dc:type
           rdf:resource="http://purl.org/dc/dcmitype/StillImage" />
        <dc:title />
      </cc:Work>
    </rdf:RDF>
  </metadata>
  <g
     inkscape:label="Layer 1"
     inkscape:groupmode="layer"
     id="layer1">
    <path
       style="color:#000000;font-style:normal;font-variant:normal;font-weight:normal;font-stretch:normal;font-size:medium;line-height:normal;font-family:sans-serif;font-variant-ligatures:normal;font-variant-position:normal;font-variant-caps:normal;font-variant-numeric:normal;font-variant-alternates:normal;font-feature-settings:normal;text-indent:0;text-align:start;text-decoration:none;text-decoration-line:none;text-decoration-style:solid;text-decoration-color:#000000;letter-spacing:normal;word-spacing:normal;text-transform:none;writing-mode:lr-tb;direction:ltr;text-orientation:mixed;dominant-baseline:auto;baseline-shift:baseline;text-anchor:start;white-space:normal;shape-padding:0;clip-rule:nonzero;display:inline;overflow:visible;visibility:visible;opacity:1;isolation:auto;mix-blend-mode:normal;color-interpolation:sRGB;color-interpolation-filters:linearRGB;solid-color:#000000;solid-opacity:1;vector-effect:none;fill:#ffffff;fill-opacity:1;fill-rule:nonzero;stroke:none;stroke-width:1;stroke-linecap:round;stroke-linejoin:round;stroke-miterlimit:4;stroke-dasharray:none;stroke-dashoffset:0;stroke-opacity:1;color-rendering:auto;image-rendering:auto;shape-rendering:auto;text-rendering:auto;enable-background:new"
       d="m 10.000025,2.99614 c -1.79823,1e-5 -2.78534,0.23261 -3.38867,0.75196 -0.60334,0.51935 -0.61133,1.25444 -0.61133,1.74804 v 0.5 h -0.002 c -0.12828,0 -0.91099,4e-5 -1.63867,0.53711 -0.72848,0.53766 -1.35958,1.60963 -1.35938,3.4668 9e-5,0.84676 0.12547,1.43896 0.35352,1.89453 0.22804,0.45557 0.5457,0.7425 0.81445,0.98047 a 0.50086817,0.50086817 0 1 0 0.66406,-0.75 c -0.2639,-0.23368 -0.44506,-0.40021 -0.58398,-0.67773 -0.13888,-0.27753 -0.24792,-0.69815 -0.248,-1.44727 -1.7e-4,-1.64286 0.494,-2.32325 0.95312,-2.66211 0.45913,-0.33885 0.92388,-0.3418 1.04688,-0.3418 h 0.44336 a 0.50005,0.50005 0 0 0 0.0586,0.004 l 3,-0.01 a 0.50005,0.50005 0 0 0 -0.002,-1 h -0.002 -0.002 l -2.49596,0.004 V 5.49609 c 0,-0.4936 -0.008,-0.75638 0.26367,-0.99023 0.27167,-0.23385 1.03456,-0.50976 2.73633,-0.50977 1.70177,0 2.46467,0.27592 2.73633,0.50977 0.27166,0.23385 0.26367,0.49663 0.26367,0.99023 v 1.99414 c -6e-5,0.47857 -0.26457,0.78886 -0.8457,1.12891 -0.58114,0.34005 -1.43184,0.62116 -2.30664,0.90234 -0.87481,0.28119 -1.77478,0.56315 -2.50586,0.98829 -0.73108,0.42513 -1.34192,1.08253 -1.3418,1.98046 v 2.01368 c 0,0.4936 0.008,1.22869 0.61133,1.74804 0.60334,0.51936 1.59044,0.75196 3.38867,0.75196 1.79823,-10e-6 2.78534,-0.23261 3.38867,-0.75196 0.60334,-0.51935 0.61133,-1.25444 0.61133,-1.74804 v -0.5 c 0.127,0 0.91215,5.4e-4 1.64062,-0.53711 0.72848,-0.53766 1.35958,-1.60963 1.35938,-3.4668 -1.6e-4,-1.56962 -0.66959,-2.34844 -1.13672,-2.84375 a 0.5001364,0.5001364 0 1 0 -0.72656,0.6875 c 0.47073,0.49913 0.86314,0.83133 0.86328,2.15625 1.7e-4,1.64286 -0.494,2.32325 -0.95312,2.66211 -0.45913,0.33885 -0.92388,0.3418 -1.04688,0.3418 h -0.44336 a 0.50005,0.50005 0 0 0 -0.0586,-0.004 l -3,0.01 a 0.50005,0.50005 0 0 0 0.002,1 h 0.002 0.002 l 2.49595,-0.004 v 0.49805 c 0,0.4936 0.008,0.75638 -0.26367,0.99023 -0.27167,0.23385 -1.03456,0.50976 -2.73633,0.50977 -1.70177,0 -2.46467,-0.27592 -2.73633,-0.50977 -0.27166,-0.2339 -0.26367,-0.49668 -0.26367,-0.99028 v -2.01368 c -6e-5,-0.47218 0.26437,-0.77913 0.8457,-1.11718 0.58133,-0.33805 1.43145,-0.61908 2.30664,-0.90039 0.8752,-0.28132 1.77441,-0.56222 2.50586,-0.99024 0.73146,-0.42801 1.34168,-1.09087 1.3418,-1.99219 V 5.49609 c 0,-0.4936 -0.008,-1.22869 -0.61133,-1.74804 -0.60334,-0.51936 -1.59044,-0.75196 -3.38867,-0.75196 z"
       id="path12249-6"
       inkscape:connector-curvature="0" />
  </g>
</svg>
