<?xml version="1.0" encoding="UTF-8" standalone="no"?>
<!-- Created with Inkscape (http://www.inkscape.org/) -->

<svg
   xmlns:dc="http://purl.org/dc/elements/1.1/"
   xmlns:cc="http://creativecommons.org/ns#"
   xmlns:rdf="http://www.w3.org/1999/02/22-rdf-syntax-ns#"
   xmlns:svg="http://www.w3.org/2000/svg"
   xmlns="http://www.w3.org/2000/svg"
   xmlns:sodipodi="http://sodipodi.sourceforge.net/DTD/sodipodi-0.dtd"
   xmlns:inkscape="http://www.inkscape.org/namespaces/inkscape"
   width="20px"
   height="20px"
   viewBox="0 0 20 20"
   version="1.1"
   id="SVGRoot"
   inkscape:version="0.92.4 (5da689c313, 2019-01-14)"
   sodipodi:docname="blender280Z20.svg">
  <defs
     id="defs39" />
  <sodipodi:namedview
     id="base"
     pagecolor="#ffffff"
     bordercolor="#666666"
     borderopacity="1.0"
     inkscape:pageopacity="0.0"
     inkscape:pageshadow="2"
     inkscape:zoom="12.8"
     inkscape:cx="-7.717555"
     inkscape:cy="13.678264"
     inkscape:document-units="px"
     inkscape:current-layer="layer1"
     showgrid="false"
     inkscape:window-width="1381"
     inkscape:window-height="712"
     inkscape:window-x="42"
     inkscape:window-y="47"
     inkscape:window-maximized="0" />
  <metadata
     id="metadata42">
    <rdf:RDF>
      <cc:Work
         rdf:about="">
        <dc:format>image/svg+xml</dc:format>
        <dc:type
           rdf:resource="http://purl.org/dc/dcmitype/StillImage" />
        <dc:title></dc:title>
      </cc:Work>
    </rdf:RDF>
  </metadata>
  <g
     inkscape:label="Layer 1"
     inkscape:groupmode="layer"
     id="layer1">
    <path
       style="display:inline;opacity:1;vector-effect:none;fill:#ffffff;fill-opacity:1;stroke:none;stroke-width:1;stroke-linecap:butt;stroke-linejoin:round;stroke-miterlimit:4;stroke-dasharray:none;stroke-dashoffset:0;stroke-opacity:1;marker:none;paint-order:fill markers stroke;enable-background:new"
       d="m 9.5,2.5 v 4 H 7 A 0.50005,0.50005 0 0 0 6.5,7 v 2.5 h -4 v 1 h 4 V 13 A 0.50005,0.50005 0 0 0 7,13.5 h 2.5 v 4 h 1 v -4 H 13 A 0.50005,0.50005 0 0 0 13.5,13 v -2.5 h 4 v -1 h -4 V 7 A 0.50005,0.50005 0 0 0 13,6.5 h -2.5 v -4 z m -2,5 h 5 v 5 h -5 z m 2,2 v 1 h 1 v -1 z"
       id="rect19268-0"
       inkscape:connector-curvature="0" />
  </g>
</svg>
