<?xml version="1.0" encoding="UTF-8" standalone="no"?>
<!-- Created with Inkscape (http://www.inkscape.org/) -->

<svg
   xmlns:dc="http://purl.org/dc/elements/1.1/"
   xmlns:cc="http://creativecommons.org/ns#"
   xmlns:rdf="http://www.w3.org/1999/02/22-rdf-syntax-ns#"
   xmlns:svg="http://www.w3.org/2000/svg"
   xmlns="http://www.w3.org/2000/svg"
   xmlns:sodipodi="http://sodipodi.sourceforge.net/DTD/sodipodi-0.dtd"
   xmlns:inkscape="http://www.inkscape.org/namespaces/inkscape"
   width="20px"
   height="20px"
   viewBox="0 0 20 20"
   version="1.1"
   id="SVGRoot"
   inkscape:version="0.92.4 (5da689c313, 2019-01-14)"
   sodipodi:docname="blender280Z14.svg">
  <defs
     id="defs39" />
  <sodipodi:namedview
     id="base"
     pagecolor="#ffffff"
     bordercolor="#666666"
     borderopacity="1.0"
     inkscape:pageopacity="0.0"
     inkscape:pageshadow="2"
     inkscape:zoom="12.8"
     inkscape:cx="-7.717555"
     inkscape:cy="13.678264"
     inkscape:document-units="px"
     inkscape:current-layer="layer1"
     showgrid="false"
     inkscape:window-width="1381"
     inkscape:window-height="712"
     inkscape:window-x="42"
     inkscape:window-y="47"
     inkscape:window-maximized="0" />
  <metadata
     id="metadata42">
    <rdf:RDF>
      <cc:Work
         rdf:about="">
        <dc:format>image/svg+xml</dc:format>
        <dc:type
           rdf:resource="http://purl.org/dc/dcmitype/StillImage" />
        <dc:title></dc:title>
      </cc:Work>
    </rdf:RDF>
  </metadata>
  <g
     inkscape:label="Layer 1"
     inkscape:groupmode="layer"
     id="layer1">
    <g
       style="display:inline;fill:#ffffff;enable-background:new"
       id="g13226"
       transform="translate(-465,-449)">
      <path
         style="color:#000000;display:inline;overflow:visible;visibility:visible;opacity:1;fill:#ffffff;fill-opacity:1;fill-rule:nonzero;stroke:none;marker:none;enable-background:accumulate"
         d="m 285,536 -0.15625,1.90625 c -0.6231,0.14227 -1.07677,0.25145 -1.59375,0.59375 l -1.75,-1.5 -1.5,1.5 1.5,1.75 c -0.34229,0.51699 -0.45148,0.97065 -0.59375,1.59375 L 279,542 v 1 1 l 1.90625,0.15625 c 0.14227,0.6231 0.25145,1.07677 0.59375,1.59375 l -1.5,1.75 1.5,1.5 1.75,-1.5 c 0.51699,0.34229 0.97065,0.45148 1.59375,0.59375 L 285,550 h 1 1 l 0.15625,-1.90625 c 0.6231,-0.14227 1.07677,-0.25145 1.59375,-0.59375 l 1.75,1.5 1.5,-1.5 -1.5,-1.75 c 0.34229,-0.51699 0.45148,-0.97065 0.59375,-1.59375 L 293,544 v -1 -1 l -1.90625,-0.15625 C 290.95148,541.22065 290.8423,540.76698 290.5,540.25 l 1.5,-1.75 -1.5,-1.5 -1.75,1.5 c -0.51699,-0.34229 -0.97065,-0.45148 -1.59375,-0.59375 L 287,536 h -1 z m 1,5 c 1.11641,0 2,0.88359 2,2 0,1.11641 -0.88359,2 -2,2 -1.11641,0 -2,-0.88359 -2,-2 0,-1.11641 0.88359,-2 2,-2 z"
         transform="translate(189,-84.000005)"
         id="path52982-3"
         inkscape:connector-curvature="0" />
    </g>
  </g>
</svg>
