<?xml version="1.0" encoding="UTF-8" standalone="no"?>
<!-- Created with Inkscape (http://www.inkscape.org/) -->

<svg
   xmlns:dc="http://purl.org/dc/elements/1.1/"
   xmlns:cc="http://creativecommons.org/ns#"
   xmlns:rdf="http://www.w3.org/1999/02/22-rdf-syntax-ns#"
   xmlns:svg="http://www.w3.org/2000/svg"
   xmlns="http://www.w3.org/2000/svg"
   xmlns:sodipodi="http://sodipodi.sourceforge.net/DTD/sodipodi-0.dtd"
   xmlns:inkscape="http://www.inkscape.org/namespaces/inkscape"
   width="20px"
   height="20px"
   viewBox="0 0 20 20"
   version="1.1"
   id="SVGRoot"
   inkscape:version="0.92.4 (5da689c313, 2019-01-14)"
   sodipodi:docname="blender280Z5.svg">
  <defs
     id="defs39" />
  <sodipodi:namedview
     id="base"
     pagecolor="#ffffff"
     bordercolor="#666666"
     borderopacity="1.0"
     inkscape:pageopacity="0.0"
     inkscape:pageshadow="2"
     inkscape:zoom="12.8"
     inkscape:cx="-7.717555"
     inkscape:cy="13.678264"
     inkscape:document-units="px"
     inkscape:current-layer="layer1"
     showgrid="false"
     inkscape:window-width="1381"
     inkscape:window-height="712"
     inkscape:window-x="17"
     inkscape:window-y="91"
     inkscape:window-maximized="0" />
  <metadata
     id="metadata42">
    <rdf:RDF>
      <cc:Work
         rdf:about="">
        <dc:format>image/svg+xml</dc:format>
        <dc:type
           rdf:resource="http://purl.org/dc/dcmitype/StillImage" />
        <dc:title></dc:title>
      </cc:Work>
    </rdf:RDF>
  </metadata>
  <g
     inkscape:label="Layer 1"
     inkscape:groupmode="layer"
     id="layer1">
    <g
       id="g13932"
       transform="translate(-444,-344)"
       style="display:inline;opacity:1;fill:#ffffff;enable-background:new"
       inkscape:export-filename="C:\Users\Andrzej Ambroż\Desktop\mtrx.png"
       inkscape:export-xdpi="96"
       inkscape:export-ydpi="96">
      <rect
         style="display:inline;opacity:0;vector-effect:none;fill:#ffffff;fill-opacity:1;stroke:none;stroke-width:1;stroke-linecap:round;stroke-linejoin:round;stroke-miterlimit:4;stroke-dasharray:none;stroke-dashoffset:0;stroke-opacity:1;marker:none;enable-background:new"
         id="rect13928"
         width="16"
         height="16"
         x="446"
         y="346"
         rx="0"
         ry="0" />
      <path
         style="color:#000000;font-style:normal;font-variant:normal;font-weight:normal;font-stretch:normal;font-size:medium;line-height:normal;font-family:sans-serif;font-variant-ligatures:normal;font-variant-position:normal;font-variant-caps:normal;font-variant-numeric:normal;font-variant-alternates:normal;font-feature-settings:normal;text-indent:0;text-align:start;text-decoration:none;text-decoration-line:none;text-decoration-style:solid;text-decoration-color:#000000;letter-spacing:normal;word-spacing:normal;text-transform:none;writing-mode:lr-tb;direction:ltr;text-orientation:mixed;dominant-baseline:auto;baseline-shift:baseline;text-anchor:start;white-space:normal;shape-padding:0;clip-rule:nonzero;display:inline;overflow:visible;visibility:visible;opacity:1;isolation:auto;mix-blend-mode:normal;color-interpolation:sRGB;color-interpolation-filters:linearRGB;solid-color:#000000;solid-opacity:1;vector-effect:none;fill:#ffffff;fill-opacity:1;fill-rule:nonzero;stroke:none;stroke-width:1px;stroke-linecap:round;stroke-linejoin:round;stroke-miterlimit:4;stroke-dasharray:none;stroke-dashoffset:0;stroke-opacity:1;color-rendering:auto;image-rendering:auto;shape-rendering:auto;text-rendering:auto;enable-background:accumulate"
         d="m 447.5,348 c -0.27613,3e-5 -0.49997,0.22387 -0.5,0.5 v 10 1 c 0,0.41667 0.19292,0.77495 0.45898,1.04102 C 447.72505,360.80708 448.08333,361 448.5,361 h 0.5 10.5 c 0.41667,0 0.77495,-0.19292 1.04102,-0.45898 C 460.80708,360.27495 461,359.91667 461,359.5 v -6 c -3e-5,-0.27613 -0.22387,-0.49997 -0.5,-0.5 h -3 -7 c -0.27613,3e-5 -0.49997,0.22387 -0.5,0.5 v 5.5 c 0,0.20833 -0.11958,0.47505 -0.32227,0.67773 C 449.47505,359.88042 449.20833,360 449,360 h -0.5 c -0.0833,0 -0.22505,-0.0571 -0.33398,-0.16602 C 448.05708,359.72505 448,359.58333 448,359.5 V 359 h 0.5 c 0.27613,-3e-5 0.49997,-0.22387 0.5,-0.5 V 352 h 8.5 c 0.27613,-3e-5 0.49997,-0.22387 0.5,-0.5 v -2 c -3e-5,-0.27613 -0.22387,-0.49997 -0.5,-0.5 L 452,348.992 V 348.5 c -3e-5,-0.27613 -0.22387,-0.49997 -0.5,-0.5 z"
         id="path13930"
         inkscape:connector-curvature="0"
         sodipodi:nodetypes="cccscscscscccccscsssscccccccccccc" />
    </g>
  </g>
</svg>
